<svg xmlns="http://www.w3.org/2000/svg" xmlns:xlink="http://www.w3.org/1999/xlink" width="1600" zoomAndPan="magnify" viewBox="0 0 1200 1199.999942" height="1600" preserveAspectRatio="xMidYMid meet" version="1.0"><defs><filter x="0%" y="0%" width="100%" height="100%" id="5b38a55eea"><feColorMatrix values="0 0 0 0 1 0 0 0 0 1 0 0 0 0 1 0 0 0 1 0" color-interpolation-filters="sRGB"/></filter><g/><clipPath id="05cd2ec388"><path d="M 15 0.441406 L 1033 0.441406 L 1033 1017.558594 L 15 1017.558594 Z M 15 0.441406 " clip-rule="nonzero"/></clipPath><mask id="44e8e85dc8"><g filter="url(#5b38a55eea)"><rect x="-330" width="1728" fill="#000000" y="-354.999987" height="1727.999917" fill-opacity="0.71"/></g></mask><clipPath id="5df20834a7"><path d="M 521 54 L 961.5 54 L 961.5 964 L 521 964 Z M 521 54 " clip-rule="nonzero"/></clipPath><clipPath id="cef64ec698"><rect x="0" width="1018" y="0" height="1018"/></clipPath><clipPath id="bea024a943"><path d="M 0.238281 218 L 1068.238281 218 L 1068.238281 918 L 0.238281 918 Z M 0.238281 218 " clip-rule="nonzero"/></clipPath><clipPath id="0d1658ec7c"><rect x="0" width="1069" y="0" height="700"/></clipPath><clipPath id="b4820e9ebc"><rect x="0" width="1069" y="0" height="1018"/></clipPath></defs><g transform="matrix(1, 0, 0, 1, 66, 91)"><g clip-path="url(#b4820e9ebc)"><g clip-path="url(#05cd2ec388)"><g mask="url(#44e8e85dc8)"><g transform="matrix(1, 0, 0, 1, 15, -0.000000000000042633)"><g clip-path="url(#cef64ec698)"><path fill="#8c52ff" d="M 272.152344 803.425781 C 269.410156 810.953125 273.171875 819.496094 280.59375 822.242188 C 288.121094 824.988281 296.460938 821.019531 299.308594 813.496094 C 314.054688 774.339844 357.992188 754.304688 397.351562 768.949219 C 404.980469 771.695312 413.21875 767.726562 416.066406 760.203125 C 418.914062 752.675781 415.253906 744.335938 407.625 741.488281 C 353.210938 721.351562 292.496094 749.117188 272.152344 803.425781 Z M 272.152344 803.425781 " fill-opacity="1" fill-rule="nonzero"/><path fill="#8c52ff" d="M 459.492188 64.953125 C 439.558594 51.933594 414.335938 51.121094 385.046875 62.207031 C 382.707031 62.917969 333.992188 80.308594 302.359375 110.210938 C 300.328125 110.109375 298.496094 109.804688 296.460938 109.804688 C 238.386719 109.804688 191.300781 156.996094 191.300781 215.167969 C 191.300781 229 194.046875 242.425781 199.335938 255.039062 C 147.972656 269.175781 110.140625 315.550781 110.140625 371.285156 C 110.140625 381.863281 112.070312 392.238281 114.613281 402.40625 C 77.898438 423.96875 54.609375 463.53125 54.609375 506.652344 C 54.609375 537.773438 66.609375 565.84375 86.136719 587.304688 C 79.019531 602.96875 74.949219 620.054688 74.949219 637.546875 C 74.949219 686.261719 104.546875 729.691406 148.277344 748.609375 C 143.90625 760.101562 141.566406 772.609375 141.566406 785.121094 C 141.566406 843.292969 188.757812 890.382812 246.933594 890.382812 C 249.574219 890.382812 252.421875 889.773438 255.269531 889.570312 C 271.136719 933.097656 318.226562 963.710938 373.042969 963.710938 C 441.1875 963.710938 496.71875 916.417969 496.71875 858.449219 L 496.71875 755.523438 C 496.71875 755.523438 496.71875 755.523438 496.71875 755.320312 L 496.71875 365.894531 C 496.71875 365.894531 496.71875 365.894531 496.71875 365.792969 L 496.71875 365.691406 L 496.617188 138.078125 C 496.617188 136.042969 493.460938 87.125 459.492188 64.953125 Z M 467.628906 293.582031 C 448.507812 273.34375 421.457031 260.53125 391.351562 260.53125 C 383.316406 260.53125 376.808594 267.039062 376.808594 275.074219 C 376.808594 283.007812 383.316406 289.617188 391.351562 289.617188 C 433.457031 289.617188 467.628906 323.789062 467.628906 365.894531 L 467.628906 683.3125 C 448.507812 663.074219 421.457031 650.160156 391.351562 650.160156 C 383.316406 650.054688 376.808594 656.566406 376.808594 664.5 C 376.808594 672.636719 383.316406 679.042969 391.351562 679.042969 C 433.457031 679.042969 467.628906 713.417969 467.628906 755.320312 L 467.628906 858.449219 C 467.628906 900.351562 425.320312 934.726562 373.042969 934.726562 C 326.769531 934.726562 287.410156 907.875 279.78125 871.160156 C 278.054688 863.332031 270.222656 858.449219 262.390625 859.769531 C 262.390625 859.769531 262.289062 859.769531 262.1875 859.769531 C 257.203125 860.992188 252.117188 861.398438 246.933594 861.398438 C 204.824219 861.398438 170.550781 827.226562 170.550781 785.121094 C 170.550781 771.796875 174.113281 758.878906 180.621094 747.386719 C 181.027344 746.777344 181.128906 745.964844 181.332031 745.148438 C 181.433594 744.742188 181.839844 744.539062 182.144531 744.132812 C 182.144531 743.726562 182.144531 743.117188 182.144531 742.503906 C 182.246094 741.894531 182.246094 741.285156 182.246094 740.472656 C 182.246094 739.25 182.246094 738.132812 182.144531 737.117188 C 181.839844 736.402344 181.636719 735.792969 181.332031 735.285156 C 180.925781 734.0625 180.519531 733.25 179.808594 732.335938 C 179.5 731.625 178.890625 731.113281 178.382812 730.503906 C 177.570312 729.691406 176.753906 729.082031 176.042969 728.265625 C 175.636719 728.0625 175.535156 727.859375 175.128906 727.65625 C 174.621094 727.25 173.90625 727.25 173.195312 726.945312 C 172.789062 726.742188 172.382812 726.539062 171.875 726.335938 C 131.902344 715.351562 104.140625 678.839844 104.140625 637.546875 C 104.140625 627.375 106.375 617.308594 109.632812 607.949219 C 128.648438 620.257812 151.226562 627.785156 175.636719 627.785156 C 183.570312 627.785156 190.179688 621.273438 190.179688 613.238281 C 190.179688 605.101562 183.570312 598.492188 175.636719 598.492188 C 124.785156 598.492188 83.695312 557.300781 83.695312 506.550781 C 83.695312 470.855469 104.546875 438.308594 136.886719 423.15625 L 136.988281 423.15625 C 137.191406 423.054688 137.394531 422.847656 137.601562 422.746094 C 149.601562 417.359375 162.414062 414.613281 175.636719 414.613281 C 183.570312 414.613281 190.179688 408.101562 190.179688 400.066406 C 190.179688 392.03125 183.570312 385.726562 175.636719 385.726562 C 163.839844 385.726562 152.652344 387.863281 141.566406 391.117188 C 140.140625 384.609375 139.125 378 139.125 371.285156 C 139.125 320.535156 180.519531 279.34375 231.167969 279.34375 C 266.253906 279.34375 297.683594 298.769531 313.445312 330.195312 C 317.109375 337.417969 325.753906 340.164062 332.972656 336.605469 C 340.09375 333.042969 343.042969 324.398438 339.378906 317.179688 C 318.734375 275.886719 277.339844 250.257812 231.167969 250.257812 C 230.660156 250.257812 230.253906 250.359375 229.640625 250.359375 C 223.84375 239.476562 220.285156 227.578125 220.285156 215.066406 C 220.285156 172.960938 254.457031 138.789062 296.5625 138.789062 C 324.226562 138.789062 349.753906 153.84375 363.28125 178.046875 C 369.382812 189.335938 372.738281 202.152344 372.738281 215.066406 C 372.738281 223 379.351562 229.613281 387.285156 229.613281 C 395.316406 229.613281 401.929688 223 401.929688 215.066406 C 401.929688 197.167969 397.351562 179.472656 388.707031 164.011719 C 377.011719 143.265625 359.214844 127.601562 338.160156 118.449219 C 363.992188 100.550781 394.199219 89.769531 394.808594 89.464844 C 415.457031 81.734375 431.929688 81.632812 443.628906 89.261719 C 464.984375 103.195312 467.628906 138.890625 467.628906 138.890625 Z M 467.628906 293.582031 " fill-opacity="1" fill-rule="nonzero"/><path fill="#8c52ff" d="M 310.699219 435.359375 C 309.277344 427.628906 301.648438 422.441406 293.714844 423.96875 C 285.78125 425.492188 280.800781 433.121094 282.324219 440.953125 C 287.816406 470.140625 303.277344 495.667969 325.242188 515.09375 C 324.734375 516.925781 324.429688 518.757812 324.53125 520.6875 C 326.972656 562.691406 294.9375 599 253.035156 601.542969 C 244.898438 601.949219 238.898438 608.867188 239.304688 616.800781 C 239.8125 624.527344 246.21875 630.53125 253.847656 630.53125 C 254.050781 630.53125 254.355469 630.53125 254.863281 630.53125 C 307.546875 627.375 348.535156 585.472656 352.90625 534.113281 C 371.417969 543.46875 391.554688 548.351562 412.097656 548.351562 C 420.539062 548.351562 428.980469 547.640625 437.21875 546.011719 C 444.949219 544.589844 450.136719 536.960938 448.710938 529.027344 C 447.289062 521.300781 439.355469 516.011719 431.726562 517.535156 C 404.472656 522.824219 377.011719 517.128906 354.332031 501.570312 C 331.347656 486.007812 315.886719 462.515625 310.699219 435.359375 Z M 310.699219 435.359375 " fill-opacity="1" fill-rule="nonzero"/><path fill="#8c52ff" d="M 610.421875 741.589844 C 602.996094 744.335938 599.234375 752.675781 601.980469 760.304688 C 604.625 767.828125 613.167969 771.796875 620.695312 769.050781 C 660.054688 754.304688 704.089844 774.441406 718.839844 813.597656 C 721.585938 821.019531 729.925781 824.988281 737.449219 822.242188 C 745.078125 819.496094 748.738281 810.953125 745.890625 803.324219 C 725.753906 749.117188 664.832031 721.351562 610.421875 741.589844 Z M 610.421875 741.589844 " fill-opacity="1" fill-rule="nonzero"/><g clip-path="url(#5df20834a7)"><path fill="#8c52ff" d="M 963.539062 506.652344 C 963.539062 463.53125 940.25 423.96875 903.433594 402.40625 C 905.972656 392.238281 907.90625 381.863281 907.90625 371.285156 C 907.90625 315.652344 870.074219 269.175781 818.914062 255.039062 C 824 242.425781 826.847656 229 826.847656 215.167969 C 826.847656 157.097656 779.65625 109.804688 721.585938 109.804688 C 719.652344 109.804688 717.820312 110.109375 715.6875 110.210938 C 684.054688 80.308594 635.238281 62.917969 633.101562 62.207031 C 603.710938 51.121094 578.488281 51.933594 558.554688 64.953125 C 524.6875 87.125 521.53125 136.042969 521.53125 138.078125 L 521.429688 365.691406 L 521.429688 365.792969 C 521.429688 365.792969 521.429688 365.894531 521.429688 365.894531 L 521.429688 755.320312 C 521.429688 755.523438 521.429688 755.523438 521.429688 755.523438 L 521.429688 858.449219 C 521.429688 916.417969 576.960938 963.710938 645.101562 963.710938 C 699.921875 963.710938 747.011719 933.097656 762.773438 889.570312 C 765.621094 889.773438 768.46875 890.382812 771.113281 890.382812 C 829.1875 890.382812 876.480469 843.292969 876.480469 785.121094 C 876.480469 772.609375 874.140625 760.101562 869.769531 748.609375 C 913.703125 729.691406 943.097656 686.160156 943.097656 637.546875 C 943.097656 620.054688 939.230469 602.96875 932.011719 587.304688 C 951.539062 565.84375 963.539062 537.773438 963.539062 506.652344 Z M 846.171875 726.335938 C 845.664062 726.539062 845.359375 726.742188 844.851562 726.945312 C 844.238281 727.25 843.425781 727.25 842.917969 727.65625 C 842.511719 727.859375 842.410156 728.0625 842.003906 728.265625 C 841.1875 729.082031 840.476562 729.691406 839.765625 730.503906 C 839.15625 731.113281 838.542969 731.625 838.238281 732.234375 C 837.527344 733.25 837.222656 734.0625 836.714844 735.285156 C 836.511719 735.792969 836.207031 736.402344 836 737.21875 C 835.796875 738.234375 835.796875 739.351562 835.796875 740.574219 C 835.796875 741.386719 835.796875 741.996094 836 742.605469 C 836 743.21875 835.796875 743.828125 836 744.234375 C 836.207031 744.640625 836.613281 744.84375 836.714844 745.25 C 837.121094 745.964844 837.121094 746.777344 837.527344 747.386719 C 843.933594 758.878906 847.597656 771.796875 847.597656 785.121094 C 847.597656 827.226562 813.117188 861.398438 771.113281 861.398438 C 765.925781 861.398438 760.84375 860.992188 755.859375 859.769531 L 755.65625 859.769531 C 747.925781 858.347656 740.09375 863.332031 738.367188 871.058594 C 730.738281 907.875 691.378906 934.726562 645.101562 934.726562 C 592.726562 934.726562 550.417969 900.351562 550.417969 858.449219 L 550.417969 755.320312 C 550.417969 713.417969 584.691406 679.042969 626.695312 679.042969 C 634.730469 679.042969 641.339844 672.636719 641.339844 664.5 C 641.339844 656.566406 634.832031 649.953125 626.695312 649.953125 C 596.589844 649.953125 569.535156 662.871094 550.417969 683.109375 L 550.417969 365.792969 C 550.417969 323.6875 584.691406 289.515625 626.695312 289.515625 C 634.730469 289.515625 641.339844 283.007812 641.339844 274.972656 C 641.339844 266.9375 634.832031 260.328125 626.695312 260.328125 C 596.589844 260.328125 569.535156 273.140625 550.417969 293.378906 L 550.417969 138.890625 C 550.417969 138.890625 552.960938 103.195312 574.621094 89.261719 C 586.113281 81.632812 602.691406 81.734375 623.339844 89.464844 C 623.949219 89.769531 654.15625 100.550781 679.988281 118.449219 C 658.933594 127.601562 640.933594 143.265625 629.441406 164.011719 C 620.898438 179.574219 616.320312 197.269531 616.320312 215.066406 C 616.320312 223 622.726562 229.613281 630.863281 229.613281 C 638.898438 229.613281 645.410156 223 645.410156 215.066406 C 645.410156 202.152344 648.664062 189.335938 654.96875 178.046875 C 668.292969 153.945312 693.820312 138.890625 721.585938 138.890625 C 763.589844 138.890625 797.863281 173.0625 797.863281 215.167969 C 797.863281 227.679688 794.203125 239.578125 788.507812 250.460938 C 787.894531 250.460938 787.386719 250.359375 786.878906 250.359375 C 740.707031 250.359375 699.3125 275.886719 678.664062 317.28125 C 675.105469 324.398438 677.953125 333.042969 685.175781 336.605469 C 692.292969 340.164062 700.9375 337.316406 704.601562 330.195312 C 720.261719 298.769531 751.789062 279.34375 786.878906 279.34375 C 837.527344 279.34375 878.921875 320.535156 878.921875 371.285156 C 878.921875 378 877.800781 384.609375 876.480469 391.117188 C 865.597656 387.863281 854.410156 385.726562 842.410156 385.726562 C 834.476562 385.726562 827.765625 392.136719 827.765625 400.167969 C 827.765625 408.203125 834.476562 414.714844 842.410156 414.714844 C 855.734375 414.714844 868.445312 417.460938 880.34375 422.847656 C 880.648438 422.953125 880.851562 423.15625 881.058594 423.257812 L 881.261719 423.257812 C 913.601562 438.308594 934.351562 470.957031 934.351562 506.652344 C 934.351562 557.402344 893.160156 598.59375 842.410156 598.59375 C 834.476562 598.59375 827.765625 605.101562 827.765625 613.339844 C 827.765625 621.273438 834.375 627.886719 842.410156 627.886719 C 866.816406 627.886719 889.398438 620.359375 908.3125 608.054688 C 911.769531 617.207031 913.90625 627.375 913.90625 637.546875 C 913.90625 678.839844 886.140625 715.351562 846.171875 726.335938 Z M 846.171875 726.335938 " fill-opacity="1" fill-rule="nonzero"/></g><path fill="#8c52ff" d="M 765.214844 601.542969 C 723.210938 599 691.175781 562.691406 693.515625 520.6875 C 693.71875 518.757812 693.414062 516.925781 692.800781 515.09375 C 714.871094 495.769531 730.230469 470.242188 735.824219 440.953125 C 737.449219 433.121094 732.367188 425.492188 724.433594 423.96875 C 716.398438 422.441406 708.769531 427.628906 707.347656 435.359375 C 702.058594 462.515625 686.597656 486.007812 663.816406 501.570312 C 640.933594 517.128906 613.472656 522.824219 586.421875 517.535156 C 578.792969 516.011719 570.757812 521.300781 569.332031 529.027344 C 567.910156 536.960938 573.097656 544.589844 581.03125 546.113281 C 589.371094 547.640625 597.710938 548.453125 606.050781 548.453125 C 626.59375 548.453125 646.832031 543.574219 665.242188 534.214844 C 669.613281 585.472656 710.5 627.476562 763.386719 630.632812 C 763.792969 630.632812 763.996094 630.632812 764.199219 630.632812 C 771.929688 630.632812 778.335938 624.628906 778.84375 616.902344 C 779.148438 608.867188 773.25 601.949219 765.214844 601.542969 Z M 765.214844 601.542969 " fill-opacity="1" fill-rule="nonzero"/></g></g></g></g><g clip-path="url(#bea024a943)"><g transform="matrix(1, 0, 0, 1, 0, 218)"><g clip-path="url(#0d1658ec7c)"><g fill="#00ffff" fill-opacity="1"><g transform="translate(93.665221, 170.652514)"><g><path d="M 11.171875 43.0625 C 13.722656 30.320312 18.203125 18.066406 24.609375 6.296875 C 31.023438 -5.472656 41.0625 -17.007812 54.71875 -28.3125 C 68.425781 -39.644531 81.660156 -47.351562 94.421875 -51.4375 C 107.179688 -55.519531 120.0625 -57.628906 133.0625 -57.765625 L 145.28125 -42.96875 L 144.0625 -41.484375 C 131.363281 -39.398438 119.273438 -35.910156 107.796875 -31.015625 C 96.316406 -26.128906 84.234375 -18.441406 71.546875 -7.953125 C 58.910156 2.503906 49.113281 12.90625 42.15625 23.25 C 35.207031 33.601562 29.519531 44.820312 25.09375 56.90625 L 23.390625 57.859375 Z M 11.171875 43.0625 "/></g></g></g><g fill="#00ffff" fill-opacity="1"><g transform="translate(139.382275, 226.473923)"><g><path d="M 55.890625 -12.578125 C 58.898438 -15.585938 61.671875 -17.84375 64.203125 -19.34375 C 66.734375 -20.851562 69.472656 -21.8125 72.421875 -22.21875 C 75.378906 -22.625 79.003906 -22.59375 83.296875 -22.125 L 93.359375 -21.125 C 98.285156 -20.613281 102.226562 -20.703125 105.1875 -21.390625 C 108.144531 -22.085938 110.789062 -23.609375 113.125 -25.953125 C 115.96875 -28.796875 117.21875 -32.066406 116.875 -35.765625 C 116.539062 -39.472656 114.441406 -43.257812 110.578125 -47.125 C 106.710938 -50.988281 102.429688 -53.394531 97.734375 -54.34375 C 93.035156 -55.300781 87.882812 -55.144531 82.28125 -53.875 L 80.546875 -55.078125 L 81.4375 -76.875 C 90.007812 -78.414062 98.078125 -77.992188 105.640625 -75.609375 C 113.210938 -73.234375 120.441406 -68.601562 127.328125 -61.71875 C 133.828125 -55.21875 138.285156 -48.78125 140.703125 -42.40625 C 143.117188 -36.039062 143.648438 -30.050781 142.296875 -24.4375 C 140.953125 -18.832031 138.050781 -13.800781 133.59375 -9.34375 C 128.695312 -4.445312 123.484375 -1.253906 117.953125 0.234375 C 112.429688 1.722656 105.929688 2.039062 98.453125 1.1875 L 87.359375 -0.09375 C 83.203125 -0.59375 80 -0.503906 77.75 0.171875 C 75.5 0.847656 73.160156 2.398438 70.734375 4.828125 L 68.703125 6.859375 L 52.578125 -9.265625 Z M 29.125 30.40625 C 26.914062 28.1875 25.421875 25.789062 24.640625 23.21875 C 23.859375 20.644531 23.789062 18.117188 24.4375 15.640625 C 25.09375 13.160156 26.398438 10.941406 28.359375 8.984375 C 30.359375 6.984375 32.613281 5.640625 35.125 4.953125 C 37.632812 4.273438 40.171875 4.328125 42.734375 5.109375 C 45.304688 5.898438 47.695312 7.40625 49.90625 9.625 C 53.226562 12.9375 54.914062 16.578125 54.96875 20.546875 C 55.03125 24.515625 53.554688 28.007812 50.546875 31.03125 C 47.523438 34.039062 44.03125 35.515625 40.0625 35.453125 C 36.09375 35.398438 32.445312 33.71875 29.125 30.40625 Z M 29.125 30.40625 "/></g></g></g><g fill="#00ffff" fill-opacity="1"><g transform="translate(211.247448, 297.904823)"><g><path d="M 96.890625 21.28125 L 82.5 39.421875 L 39.078125 -36.65625 L 52.5 -53.59375 L 136.484375 -28.65625 L 122.15625 -10.578125 L 70 -27.203125 L 68.8125 -25.71875 Z M 96.890625 21.28125 "/></g></g></g><g fill="#00ffff" fill-opacity="1"><g transform="translate(295.989617, 364.553976)"><g><path d="M 116.859375 -15.5 L 47.515625 -58.078125 L 58.359375 -75.75 L 127.703125 -33.171875 Z M 97.140625 16.609375 L 27.796875 -25.96875 L 38.640625 -43.640625 L 107.984375 -1.0625 Z M 97.140625 16.609375 "/></g></g></g><g fill="#00ffff" fill-opacity="1"><g transform="translate(391.825709, 425.882831)"><g><path d="M 71.875 59.546875 C 56.832031 53.460938 44.988281 45.242188 36.34375 34.890625 C 27.695312 24.546875 22.664062 12.640625 21.25 -0.828125 C 19.832031 -14.296875 22.238281 -28.722656 28.46875 -44.109375 C 34.3125 -58.523438 42.515625 -70.140625 53.078125 -78.953125 C 63.648438 -87.765625 75.867188 -93.039062 89.734375 -94.78125 C 103.609375 -96.53125 118.203125 -94.304688 133.515625 -88.109375 C 148.710938 -81.953125 160.523438 -73.828125 168.953125 -63.734375 C 177.390625 -53.640625 182.253906 -42.203125 183.546875 -29.421875 C 184.847656 -16.648438 182.632812 -3.191406 176.90625 10.953125 C 173.40625 19.597656 169.015625 26.640625 163.734375 32.078125 C 158.453125 37.515625 152.625 41.019531 146.25 42.59375 C 139.882812 44.164062 133.421875 43.625 126.859375 40.96875 C 114.992188 36.164062 108.988281 28.644531 108.84375 18.40625 L 107.265625 17.765625 C 103.203125 21.367188 98.921875 23.488281 94.421875 24.125 C 89.921875 24.769531 84.96875 24 79.5625 21.8125 C 73.332031 19.289062 68.492188 15.628906 65.046875 10.828125 C 61.609375 6.023438 59.773438 0.226562 59.546875 -6.5625 C 59.316406 -13.363281 60.875 -20.890625 64.21875 -29.140625 C 67.507812 -37.265625 71.632812 -43.691406 76.59375 -48.421875 C 81.550781 -53.160156 86.945312 -56.082031 92.78125 -57.1875 C 98.613281 -58.289062 104.507812 -57.632812 110.46875 -55.21875 C 115.09375 -53.351562 118.601562 -50.976562 121 -48.09375 C 123.394531 -45.207031 124.976562 -41.507812 125.75 -37 L 127.421875 -36.59375 L 130.9375 -45.28125 L 151.828125 -36.8125 L 131.90625 12.390625 C 129.175781 19.128906 130.289062 23.503906 135.25 25.515625 C 138.8125 26.953125 142.5625 25.957031 146.5 22.53125 C 150.445312 19.101562 154.316406 12.707031 158.109375 3.34375 C 164.898438 -13.414062 165.757812 -28.132812 160.6875 -40.8125 C 155.613281 -53.5 144.195312 -63.441406 126.4375 -70.640625 C 115.46875 -75.078125 104.890625 -76.6875 94.703125 -75.46875 C 84.515625 -74.25 75.398438 -70.273438 67.359375 -63.546875 C 59.316406 -56.816406 52.953125 -47.664062 48.265625 -36.09375 C 40.679688 -17.363281 39.601562 -1.425781 45.03125 11.71875 C 50.46875 24.875 61.796875 34.9375 79.015625 41.90625 C 84.691406 44.207031 90.195312 45.773438 95.53125 46.609375 C 100.863281 47.441406 105.722656 47.578125 110.109375 47.015625 L 111.6875 47.65625 L 111.078125 65.015625 C 108.546875 65.804688 105.164062 66.140625 100.9375 66.015625 C 96.707031 65.898438 92.039062 65.296875 86.9375 64.203125 C 81.84375 63.109375 76.820312 61.554688 71.875 59.546875 Z M 92.421875 6.421875 C 97.085938 8.304688 101.40625 8.070312 105.375 5.71875 C 109.34375 3.375 112.75 -1.304688 115.59375 -8.328125 C 118.4375 -15.347656 119.238281 -21.082031 118 -25.53125 C 116.757812 -29.988281 113.828125 -33.148438 109.203125 -35.015625 C 104.296875 -37.003906 99.941406 -36.875 96.140625 -34.625 C 92.335938 -32.375 88.960938 -27.601562 86.015625 -20.3125 C 83.054688 -13.007812 82.15625 -7.222656 83.3125 -2.953125 C 84.476562 1.304688 87.515625 4.429688 92.421875 6.421875 Z M 92.421875 6.421875 "/></g></g></g><g fill="#00ffff" fill-opacity="1"><g transform="translate(566.572202, 491.549274)"><g><path d="M 1.484375 17.796875 C 7.222656 11.785156 12.390625 5.601562 16.984375 -0.75 C 21.578125 -7.113281 25.828125 -14.546875 29.734375 -23.046875 C 33.648438 -31.554688 36.953125 -41.296875 39.640625 -52.265625 C 42.328125 -63.242188 43.910156 -73.421875 44.390625 -82.796875 C 44.867188 -92.179688 44.554688 -100.75 43.453125 -108.5 C 42.359375 -116.257812 40.625 -124.144531 38.25 -132.15625 L 39.046875 -133.890625 L 57.609375 -129.34375 C 61.097656 -121.863281 63.910156 -114.164062 66.046875 -106.25 C 68.191406 -98.332031 69.332031 -89.296875 69.46875 -79.140625 C 69.613281 -68.992188 68.21875 -57.9375 65.28125 -45.96875 C 61.0625 -28.757812 55.035156 -14.710938 47.203125 -3.828125 C 39.367188 7.054688 30.28125 16.425781 19.9375 24.28125 L 1.375 19.734375 Z M 1.484375 17.796875 "/></g></g></g><g fill="#00ffff" fill-opacity="1"><g transform="translate(635.978453, 508.574305)"><g><path d="M 73.046875 30.515625 L 49.609375 26.84375 L 25.484375 -137.046875 L 49 -133.359375 Z M 73.046875 30.515625 "/></g></g></g><g fill="#00ffff" fill-opacity="1"><g transform="translate(721.570802, 523.632751)"><g><path d="M 53.34375 1.21875 L 27.21875 0.625 L 5.859375 -99.3125 L 29.015625 -98.78125 L 42.09375 -31.21875 L 43.984375 -31.171875 L 64.421875 -97.984375 L 86.0625 -97.484375 L 104.09375 -29.8125 L 105.984375 -29.765625 L 121.5625 -96.6875 L 144.09375 -96.171875 L 118.5 2.6875 L 92.265625 2.09375 L 74.96875 -66 L 73.078125 -66.046875 Z M 53.34375 1.21875 "/></g></g></g><g fill="#00ffff" fill-opacity="1"><g transform="translate(877.018339, 524.695747)"><g><path d="M 49.6875 -82.90625 L 79.3125 -86.53125 L 81.828125 -65.953125 L 52.203125 -62.328125 L 55.890625 -32.265625 L 34.421875 -29.640625 L 30.734375 -59.703125 L 1.03125 -56.0625 L -1.484375 -76.640625 L 28.21875 -80.28125 L 24.546875 -110.328125 L 46.015625 -112.953125 Z M 49.6875 -82.90625 "/></g></g></g><g fill="#ff00ff" fill-opacity="1"><g transform="translate(100.120493, 173.152973)"><g><path d="M 11.171875 43.0625 C 13.722656 30.320312 18.203125 18.066406 24.609375 6.296875 C 31.023438 -5.472656 41.0625 -17.007812 54.71875 -28.3125 C 68.425781 -39.644531 81.660156 -47.351562 94.421875 -51.4375 C 107.179688 -55.519531 120.0625 -57.628906 133.0625 -57.765625 L 145.28125 -42.96875 L 144.0625 -41.484375 C 131.363281 -39.398438 119.273438 -35.910156 107.796875 -31.015625 C 96.316406 -26.128906 84.234375 -18.441406 71.546875 -7.953125 C 58.910156 2.503906 49.113281 12.90625 42.15625 23.25 C 35.207031 33.601562 29.519531 44.820312 25.09375 56.90625 L 23.390625 57.859375 Z M 11.171875 43.0625 "/></g></g></g><g fill="#ff00ff" fill-opacity="1"><g transform="translate(145.837576, 228.974382)"><g><path d="M 55.890625 -12.578125 C 58.898438 -15.585938 61.671875 -17.84375 64.203125 -19.34375 C 66.734375 -20.851562 69.472656 -21.8125 72.421875 -22.21875 C 75.378906 -22.625 79.003906 -22.59375 83.296875 -22.125 L 93.359375 -21.125 C 98.285156 -20.613281 102.226562 -20.703125 105.1875 -21.390625 C 108.144531 -22.085938 110.789062 -23.609375 113.125 -25.953125 C 115.96875 -28.796875 117.21875 -32.066406 116.875 -35.765625 C 116.539062 -39.472656 114.441406 -43.257812 110.578125 -47.125 C 106.710938 -50.988281 102.429688 -53.394531 97.734375 -54.34375 C 93.035156 -55.300781 87.882812 -55.144531 82.28125 -53.875 L 80.546875 -55.078125 L 81.4375 -76.875 C 90.007812 -78.414062 98.078125 -77.992188 105.640625 -75.609375 C 113.210938 -73.234375 120.441406 -68.601562 127.328125 -61.71875 C 133.828125 -55.21875 138.285156 -48.78125 140.703125 -42.40625 C 143.117188 -36.039062 143.648438 -30.050781 142.296875 -24.4375 C 140.953125 -18.832031 138.050781 -13.800781 133.59375 -9.34375 C 128.695312 -4.445312 123.484375 -1.253906 117.953125 0.234375 C 112.429688 1.722656 105.929688 2.039062 98.453125 1.1875 L 87.359375 -0.09375 C 83.203125 -0.59375 80 -0.503906 77.75 0.171875 C 75.5 0.847656 73.160156 2.398438 70.734375 4.828125 L 68.703125 6.859375 L 52.578125 -9.265625 Z M 29.125 30.40625 C 26.914062 28.1875 25.421875 25.789062 24.640625 23.21875 C 23.859375 20.644531 23.789062 18.117188 24.4375 15.640625 C 25.09375 13.160156 26.398438 10.941406 28.359375 8.984375 C 30.359375 6.984375 32.613281 5.640625 35.125 4.953125 C 37.632812 4.273438 40.171875 4.328125 42.734375 5.109375 C 45.304688 5.898438 47.695312 7.40625 49.90625 9.625 C 53.226562 12.9375 54.914062 16.578125 54.96875 20.546875 C 55.03125 24.515625 53.554688 28.007812 50.546875 31.03125 C 47.523438 34.039062 44.03125 35.515625 40.0625 35.453125 C 36.09375 35.398438 32.445312 33.71875 29.125 30.40625 Z M 29.125 30.40625 "/></g></g></g><g fill="#ff00ff" fill-opacity="1"><g transform="translate(217.702752, 300.405282)"><g><path d="M 96.890625 21.28125 L 82.5 39.421875 L 39.078125 -36.65625 L 52.5 -53.59375 L 136.484375 -28.65625 L 122.15625 -10.578125 L 70 -27.203125 L 68.8125 -25.71875 Z M 96.890625 21.28125 "/></g></g></g><g fill="#ff00ff" fill-opacity="1"><g transform="translate(302.444949, 367.054406)"><g><path d="M 116.859375 -15.5 L 47.515625 -58.078125 L 58.359375 -75.75 L 127.703125 -33.171875 Z M 97.140625 16.609375 L 27.796875 -25.96875 L 38.640625 -43.640625 L 107.984375 -1.0625 Z M 97.140625 16.609375 "/></g></g></g><g fill="#ff00ff" fill-opacity="1"><g transform="translate(398.280988, 428.383261)"><g><path d="M 71.875 59.546875 C 56.832031 53.460938 44.988281 45.242188 36.34375 34.890625 C 27.695312 24.546875 22.664062 12.640625 21.25 -0.828125 C 19.832031 -14.296875 22.238281 -28.722656 28.46875 -44.109375 C 34.3125 -58.523438 42.515625 -70.140625 53.078125 -78.953125 C 63.648438 -87.765625 75.867188 -93.039062 89.734375 -94.78125 C 103.609375 -96.53125 118.203125 -94.304688 133.515625 -88.109375 C 148.710938 -81.953125 160.523438 -73.828125 168.953125 -63.734375 C 177.390625 -53.640625 182.253906 -42.203125 183.546875 -29.421875 C 184.847656 -16.648438 182.632812 -3.191406 176.90625 10.953125 C 173.40625 19.597656 169.015625 26.640625 163.734375 32.078125 C 158.453125 37.515625 152.625 41.019531 146.25 42.59375 C 139.882812 44.164062 133.421875 43.625 126.859375 40.96875 C 114.992188 36.164062 108.988281 28.644531 108.84375 18.40625 L 107.265625 17.765625 C 103.203125 21.367188 98.921875 23.488281 94.421875 24.125 C 89.921875 24.769531 84.96875 24 79.5625 21.8125 C 73.332031 19.289062 68.492188 15.628906 65.046875 10.828125 C 61.609375 6.023438 59.773438 0.226562 59.546875 -6.5625 C 59.316406 -13.363281 60.875 -20.890625 64.21875 -29.140625 C 67.507812 -37.265625 71.632812 -43.691406 76.59375 -48.421875 C 81.550781 -53.160156 86.945312 -56.082031 92.78125 -57.1875 C 98.613281 -58.289062 104.507812 -57.632812 110.46875 -55.21875 C 115.09375 -53.351562 118.601562 -50.976562 121 -48.09375 C 123.394531 -45.207031 124.976562 -41.507812 125.75 -37 L 127.421875 -36.59375 L 130.9375 -45.28125 L 151.828125 -36.8125 L 131.90625 12.390625 C 129.175781 19.128906 130.289062 23.503906 135.25 25.515625 C 138.8125 26.953125 142.5625 25.957031 146.5 22.53125 C 150.445312 19.101562 154.316406 12.707031 158.109375 3.34375 C 164.898438 -13.414062 165.757812 -28.132812 160.6875 -40.8125 C 155.613281 -53.5 144.195312 -63.441406 126.4375 -70.640625 C 115.46875 -75.078125 104.890625 -76.6875 94.703125 -75.46875 C 84.515625 -74.25 75.398438 -70.273438 67.359375 -63.546875 C 59.316406 -56.816406 52.953125 -47.664062 48.265625 -36.09375 C 40.679688 -17.363281 39.601562 -1.425781 45.03125 11.71875 C 50.46875 24.875 61.796875 34.9375 79.015625 41.90625 C 84.691406 44.207031 90.195312 45.773438 95.53125 46.609375 C 100.863281 47.441406 105.722656 47.578125 110.109375 47.015625 L 111.6875 47.65625 L 111.078125 65.015625 C 108.546875 65.804688 105.164062 66.140625 100.9375 66.015625 C 96.707031 65.898438 92.039062 65.296875 86.9375 64.203125 C 81.84375 63.109375 76.820312 61.554688 71.875 59.546875 Z M 92.421875 6.421875 C 97.085938 8.304688 101.40625 8.070312 105.375 5.71875 C 109.34375 3.375 112.75 -1.304688 115.59375 -8.328125 C 118.4375 -15.347656 119.238281 -21.082031 118 -25.53125 C 116.757812 -29.988281 113.828125 -33.148438 109.203125 -35.015625 C 104.296875 -37.003906 99.941406 -36.875 96.140625 -34.625 C 92.335938 -32.375 88.960938 -27.601562 86.015625 -20.3125 C 83.054688 -13.007812 82.15625 -7.222656 83.3125 -2.953125 C 84.476562 1.304688 87.515625 4.429688 92.421875 6.421875 Z M 92.421875 6.421875 "/></g></g></g><g fill="#ff00ff" fill-opacity="1"><g transform="translate(573.027457, 494.049762)"><g><path d="M 1.484375 17.796875 C 7.222656 11.785156 12.390625 5.601562 16.984375 -0.75 C 21.578125 -7.113281 25.828125 -14.546875 29.734375 -23.046875 C 33.648438 -31.554688 36.953125 -41.296875 39.640625 -52.265625 C 42.328125 -63.242188 43.910156 -73.421875 44.390625 -82.796875 C 44.867188 -92.179688 44.554688 -100.75 43.453125 -108.5 C 42.359375 -116.257812 40.625 -124.144531 38.25 -132.15625 L 39.046875 -133.890625 L 57.609375 -129.34375 C 61.097656 -121.863281 63.910156 -114.164062 66.046875 -106.25 C 68.191406 -98.332031 69.332031 -89.296875 69.46875 -79.140625 C 69.613281 -68.992188 68.21875 -57.9375 65.28125 -45.96875 C 61.0625 -28.757812 55.035156 -14.710938 47.203125 -3.828125 C 39.367188 7.054688 30.28125 16.425781 19.9375 24.28125 L 1.375 19.734375 Z M 1.484375 17.796875 "/></g></g></g><g fill="#ff00ff" fill-opacity="1"><g transform="translate(642.433733, 511.074735)"><g><path d="M 73.046875 30.515625 L 49.609375 26.84375 L 25.484375 -137.046875 L 49 -133.359375 Z M 73.046875 30.515625 "/></g></g></g><g fill="#ff00ff" fill-opacity="1"><g transform="translate(728.026082, 526.133179)"><g><path d="M 53.34375 1.21875 L 27.21875 0.625 L 5.859375 -99.3125 L 29.015625 -98.78125 L 42.09375 -31.21875 L 43.984375 -31.171875 L 64.421875 -97.984375 L 86.0625 -97.484375 L 104.09375 -29.8125 L 105.984375 -29.765625 L 121.5625 -96.6875 L 144.09375 -96.171875 L 118.5 2.6875 L 92.265625 2.09375 L 74.96875 -66 L 73.078125 -66.046875 Z M 53.34375 1.21875 "/></g></g></g><g fill="#ff00ff" fill-opacity="1"><g transform="translate(883.473619, 527.196177)"><g><path d="M 49.6875 -82.90625 L 79.3125 -86.53125 L 81.828125 -65.953125 L 52.203125 -62.328125 L 55.890625 -32.265625 L 34.421875 -29.640625 L 30.734375 -59.703125 L 1.03125 -56.0625 L -1.484375 -76.640625 L 28.21875 -80.28125 L 24.546875 -110.328125 L 46.015625 -112.953125 Z M 49.6875 -82.90625 "/></g></g></g><g fill="#ffffff" fill-opacity="1"><g transform="translate(96.892858, 171.902758)"><g><path d="M 11.171875 43.0625 C 13.722656 30.320312 18.203125 18.066406 24.609375 6.296875 C 31.023438 -5.472656 41.0625 -17.007812 54.71875 -28.3125 C 68.425781 -39.644531 81.660156 -47.351562 94.421875 -51.4375 C 107.179688 -55.519531 120.0625 -57.628906 133.0625 -57.765625 L 145.28125 -42.96875 L 144.0625 -41.484375 C 131.363281 -39.398438 119.273438 -35.910156 107.796875 -31.015625 C 96.316406 -26.128906 84.234375 -18.441406 71.546875 -7.953125 C 58.910156 2.503906 49.113281 12.90625 42.15625 23.25 C 35.207031 33.601562 29.519531 44.820312 25.09375 56.90625 L 23.390625 57.859375 Z M 11.171875 43.0625 "/></g></g></g><g fill="#ffffff" fill-opacity="1"><g transform="translate(142.609942, 227.724167)"><g><path d="M 55.890625 -12.578125 C 58.898438 -15.585938 61.671875 -17.84375 64.203125 -19.34375 C 66.734375 -20.851562 69.472656 -21.8125 72.421875 -22.21875 C 75.378906 -22.625 79.003906 -22.59375 83.296875 -22.125 L 93.359375 -21.125 C 98.285156 -20.613281 102.226562 -20.703125 105.1875 -21.390625 C 108.144531 -22.085938 110.789062 -23.609375 113.125 -25.953125 C 115.96875 -28.796875 117.21875 -32.066406 116.875 -35.765625 C 116.539062 -39.472656 114.441406 -43.257812 110.578125 -47.125 C 106.710938 -50.988281 102.429688 -53.394531 97.734375 -54.34375 C 93.035156 -55.300781 87.882812 -55.144531 82.28125 -53.875 L 80.546875 -55.078125 L 81.4375 -76.875 C 90.007812 -78.414062 98.078125 -77.992188 105.640625 -75.609375 C 113.210938 -73.234375 120.441406 -68.601562 127.328125 -61.71875 C 133.828125 -55.21875 138.285156 -48.78125 140.703125 -42.40625 C 143.117188 -36.039062 143.648438 -30.050781 142.296875 -24.4375 C 140.953125 -18.832031 138.050781 -13.800781 133.59375 -9.34375 C 128.695312 -4.445312 123.484375 -1.253906 117.953125 0.234375 C 112.429688 1.722656 105.929688 2.039062 98.453125 1.1875 L 87.359375 -0.09375 C 83.203125 -0.59375 80 -0.503906 77.75 0.171875 C 75.5 0.847656 73.160156 2.398438 70.734375 4.828125 L 68.703125 6.859375 L 52.578125 -9.265625 Z M 29.125 30.40625 C 26.914062 28.1875 25.421875 25.789062 24.640625 23.21875 C 23.859375 20.644531 23.789062 18.117188 24.4375 15.640625 C 25.09375 13.160156 26.398438 10.941406 28.359375 8.984375 C 30.359375 6.984375 32.613281 5.640625 35.125 4.953125 C 37.632812 4.273438 40.171875 4.328125 42.734375 5.109375 C 45.304688 5.898438 47.695312 7.40625 49.90625 9.625 C 53.226562 12.9375 54.914062 16.578125 54.96875 20.546875 C 55.03125 24.515625 53.554688 28.007812 50.546875 31.03125 C 47.523438 34.039062 44.03125 35.515625 40.0625 35.453125 C 36.09375 35.398438 32.445312 33.71875 29.125 30.40625 Z M 29.125 30.40625 "/></g></g></g><g fill="#ffffff" fill-opacity="1"><g transform="translate(214.475086, 299.155067)"><g><path d="M 96.890625 21.28125 L 82.5 39.421875 L 39.078125 -36.65625 L 52.5 -53.59375 L 136.484375 -28.65625 L 122.15625 -10.578125 L 70 -27.203125 L 68.8125 -25.71875 Z M 96.890625 21.28125 "/></g></g></g><g fill="#ffffff" fill-opacity="1"><g transform="translate(299.217254, 365.804191)"><g><path d="M 116.859375 -15.5 L 47.515625 -58.078125 L 58.359375 -75.75 L 127.703125 -33.171875 Z M 97.140625 16.609375 L 27.796875 -25.96875 L 38.640625 -43.640625 L 107.984375 -1.0625 Z M 97.140625 16.609375 "/></g></g></g><g fill="#ffffff" fill-opacity="1"><g transform="translate(395.053348, 427.133046)"><g><path d="M 71.875 59.546875 C 56.832031 53.460938 44.988281 45.242188 36.34375 34.890625 C 27.695312 24.546875 22.664062 12.640625 21.25 -0.828125 C 19.832031 -14.296875 22.238281 -28.722656 28.46875 -44.109375 C 34.3125 -58.523438 42.515625 -70.140625 53.078125 -78.953125 C 63.648438 -87.765625 75.867188 -93.039062 89.734375 -94.78125 C 103.609375 -96.53125 118.203125 -94.304688 133.515625 -88.109375 C 148.710938 -81.953125 160.523438 -73.828125 168.953125 -63.734375 C 177.390625 -53.640625 182.253906 -42.203125 183.546875 -29.421875 C 184.847656 -16.648438 182.632812 -3.191406 176.90625 10.953125 C 173.40625 19.597656 169.015625 26.640625 163.734375 32.078125 C 158.453125 37.515625 152.625 41.019531 146.25 42.59375 C 139.882812 44.164062 133.421875 43.625 126.859375 40.96875 C 114.992188 36.164062 108.988281 28.644531 108.84375 18.40625 L 107.265625 17.765625 C 103.203125 21.367188 98.921875 23.488281 94.421875 24.125 C 89.921875 24.769531 84.96875 24 79.5625 21.8125 C 73.332031 19.289062 68.492188 15.628906 65.046875 10.828125 C 61.609375 6.023438 59.773438 0.226562 59.546875 -6.5625 C 59.316406 -13.363281 60.875 -20.890625 64.21875 -29.140625 C 67.507812 -37.265625 71.632812 -43.691406 76.59375 -48.421875 C 81.550781 -53.160156 86.945312 -56.082031 92.78125 -57.1875 C 98.613281 -58.289062 104.507812 -57.632812 110.46875 -55.21875 C 115.09375 -53.351562 118.601562 -50.976562 121 -48.09375 C 123.394531 -45.207031 124.976562 -41.507812 125.75 -37 L 127.421875 -36.59375 L 130.9375 -45.28125 L 151.828125 -36.8125 L 131.90625 12.390625 C 129.175781 19.128906 130.289062 23.503906 135.25 25.515625 C 138.8125 26.953125 142.5625 25.957031 146.5 22.53125 C 150.445312 19.101562 154.316406 12.707031 158.109375 3.34375 C 164.898438 -13.414062 165.757812 -28.132812 160.6875 -40.8125 C 155.613281 -53.5 144.195312 -63.441406 126.4375 -70.640625 C 115.46875 -75.078125 104.890625 -76.6875 94.703125 -75.46875 C 84.515625 -74.25 75.398438 -70.273438 67.359375 -63.546875 C 59.316406 -56.816406 52.953125 -47.664062 48.265625 -36.09375 C 40.679688 -17.363281 39.601562 -1.425781 45.03125 11.71875 C 50.46875 24.875 61.796875 34.9375 79.015625 41.90625 C 84.691406 44.207031 90.195312 45.773438 95.53125 46.609375 C 100.863281 47.441406 105.722656 47.578125 110.109375 47.015625 L 111.6875 47.65625 L 111.078125 65.015625 C 108.546875 65.804688 105.164062 66.140625 100.9375 66.015625 C 96.707031 65.898438 92.039062 65.296875 86.9375 64.203125 C 81.84375 63.109375 76.820312 61.554688 71.875 59.546875 Z M 92.421875 6.421875 C 97.085938 8.304688 101.40625 8.070312 105.375 5.71875 C 109.34375 3.375 112.75 -1.304688 115.59375 -8.328125 C 118.4375 -15.347656 119.238281 -21.082031 118 -25.53125 C 116.757812 -29.988281 113.828125 -33.148438 109.203125 -35.015625 C 104.296875 -37.003906 99.941406 -36.875 96.140625 -34.625 C 92.335938 -32.375 88.960938 -27.601562 86.015625 -20.3125 C 83.054688 -13.007812 82.15625 -7.222656 83.3125 -2.953125 C 84.476562 1.304688 87.515625 4.429688 92.421875 6.421875 Z M 92.421875 6.421875 "/></g></g></g><g fill="#ffffff" fill-opacity="1"><g transform="translate(569.79989, 492.799547)"><g><path d="M 1.484375 17.796875 C 7.222656 11.785156 12.390625 5.601562 16.984375 -0.75 C 21.578125 -7.113281 25.828125 -14.546875 29.734375 -23.046875 C 33.648438 -31.554688 36.953125 -41.296875 39.640625 -52.265625 C 42.328125 -63.242188 43.910156 -73.421875 44.390625 -82.796875 C 44.867188 -92.179688 44.554688 -100.75 43.453125 -108.5 C 42.359375 -116.257812 40.625 -124.144531 38.25 -132.15625 L 39.046875 -133.890625 L 57.609375 -129.34375 C 61.097656 -121.863281 63.910156 -114.164062 66.046875 -106.25 C 68.191406 -98.332031 69.332031 -89.296875 69.46875 -79.140625 C 69.613281 -68.992188 68.21875 -57.9375 65.28125 -45.96875 C 61.0625 -28.757812 55.035156 -14.710938 47.203125 -3.828125 C 39.367188 7.054688 30.28125 16.425781 19.9375 24.28125 L 1.375 19.734375 Z M 1.484375 17.796875 "/></g></g></g><g fill="#ffffff" fill-opacity="1"><g transform="translate(639.206141, 509.82452)"><g><path d="M 73.046875 30.515625 L 49.609375 26.84375 L 25.484375 -137.046875 L 49 -133.359375 Z M 73.046875 30.515625 "/></g></g></g><g fill="#ffffff" fill-opacity="1"><g transform="translate(724.798442, 524.882964)"><g><path d="M 53.34375 1.21875 L 27.21875 0.625 L 5.859375 -99.3125 L 29.015625 -98.78125 L 42.09375 -31.21875 L 43.984375 -31.171875 L 64.421875 -97.984375 L 86.0625 -97.484375 L 104.09375 -29.8125 L 105.984375 -29.765625 L 121.5625 -96.6875 L 144.09375 -96.171875 L 118.5 2.6875 L 92.265625 2.09375 L 74.96875 -66 L 73.078125 -66.046875 Z M 53.34375 1.21875 "/></g></g></g><g fill="#ffffff" fill-opacity="1"><g transform="translate(880.246051, 525.945962)"><g><path d="M 49.6875 -82.90625 L 79.3125 -86.53125 L 81.828125 -65.953125 L 52.203125 -62.328125 L 55.890625 -32.265625 L 34.421875 -29.640625 L 30.734375 -59.703125 L 1.03125 -56.0625 L -1.484375 -76.640625 L 28.21875 -80.28125 L 24.546875 -110.328125 L 46.015625 -112.953125 Z M 49.6875 -82.90625 "/></g></g></g></g></g></g></g></g></svg>